#tb 0: 12/181
#media_type 0: video
#codec_id 0: rawvideo
#dimensions 0: 1172x852
#sar 0: 0/1
0,          0,          0,        1,  2995632, 0xd99bcd57
0,          3,          3,        1,  2995632, 0xd99bcd57
0,          4,          4,        1,  2995632, 0xd99bcd57
0,          5,          5,        1,  2995632, 0xd99bcd57
0,          6,          6,        1,  2995632, 0xd99bcd57
0,          7,          7,        1,  2995632, 0xd99bcd57
0,          8,          8,        1,  2995632, 0xd99bcd57
0,          9,          9,        1,  2995632, 0xd99bcd57
0,         10,         10,        1,  2995632, 0xd99bcd57
0,         11,         11,        1,  2995632, 0xd99bcd57
0,         12,         12,        1,  2995632, 0xd99bcd57
0,         13,         13,        1,  2995632, 0xd99bcd57
0,         14,         14,        1,  2995632, 0xd99bcd57
0,         15,         15,        1,  2995632, 0xd99bcd57
0,         16,         16,        1,  2995632, 0xd99bcd57
0,         17,         17,        1,  2995632, 0xd99bcd57
0,         18,         18,        1,  2995632, 0xd99bcd57
0,         19,         19,        1,  2995632, 0xd99bcd57
0,         20,         20,        1,  2995632, 0xd99bcd57
0,         21,         21,        1,  2995632, 0xd99bcd57
0,         22,         22,        1,  2995632, 0xd99bcd57
0,         23,         23,        1,  2995632, 0xd99bcd57
0,         24,         24,        1,  2995632, 0xd99bcd57
0,         25,         25,        1,  2995632, 0xd99bcd57
0,         26,         26,        1,  2995632, 0xd99bcd57
0,         27,         27,        1,  2995632, 0xd99bcd57
0,         28,         28,        1,  2995632, 0xd99bcd57
0,         29,         29,        1,  2995632, 0xd99bcd57
0,         30,         30,        1,  2995632, 0xbeb35375
0,         31,         31,        1,  2995632, 0xbeb35375
0,         32,         32,        1,  2995632, 0xbeb35375
0,         33,         33,        1,  2995632, 0xbeb35375
0,         34,         34,        1,  2995632, 0xbeb35375
0,         35,         35,        1,  2995632, 0xbeb35375
0,         36,         36,        1,  2995632, 0xbeb35375
0,         37,         37,        1,  2995632, 0xcaae4108
0,         38,         38,        1,  2995632, 0xcaae4108
0,         39,         39,        1,  2995632, 0xcaae4108
0,         40,         40,        1,  2995632, 0xcaae4108
0,         41,         41,        1,  2995632, 0xcaae4108
0,         42,         42,        1,  2995632, 0xcaae4108
0,         43,         43,        1,  2995632, 0x8aa38ce0
0,         44,         44,        1,  2995632, 0x8aa38ce0
0,         45,         45,        1,  2995632, 0x8aa38ce0
0,         46,         46,        1,  2995632, 0x8aa38ce0
0,         47,         47,        1,  2995632, 0x8aa38ce0
0,         48,         48,        1,  2995632, 0x8aa38ce0
0,         49,         49,        1,  2995632, 0x05885d30
0,         50,         50,        1,  2995632, 0xd3eee8e8
0,         51,         51,        1,  2995632, 0x0b82ea84
0,         52,         52,        1,  2995632, 0x0b82ea84
0,         53,         53,        1,  2995632, 0x19f32c5e
0,         54,         54,        1,  2995632, 0x19f32c5e
0,         55,         55,        1,  2995632, 0x19f32c5e
0,         56,         56,        1,  2995632, 0x478b455c
0,         57,         57,        1,  2995632, 0x08256940
0,         58,         58,        1,  2995632, 0x08256940
0,         59,         59,        1,  2995632, 0x08256940
0,         60,         60,        1,  2995632, 0x188c88fc
0,         61,         61,        1,  2995632, 0x7ff65403
0,         62,         62,        1,  2995632, 0xef8686db
0,         63,         63,        1,  2995632, 0x8ca34321
0,         64,         64,        1,  2995632, 0x722e18d1
0,         65,         65,        1,  2995632, 0x722e18d1
0,         66,         66,        1,  2995632, 0x0f0c1574
0,         67,         67,        1,  2995632, 0x0f0c1574
0,         68,         68,        1,  2995632, 0x0f0c1574
0,         69,         69,        1,  2995632, 0x440c5180
0,         70,         70,        1,  2995632, 0x440c5180
0,         71,         71,        1,  2995632, 0x440c5180
0,         72,         72,        1,  2995632, 0x440c5180
0,         73,         73,        1,  2995632, 0x440c5180
0,         74,         74,        1,  2995632, 0x440c5180
0,         75,         75,        1,  2995632, 0x440c5180
0,         76,         76,        1,  2995632, 0x440c5180
0,         77,         77,        1,  2995632, 0x50b9656c
0,         78,         78,        1,  2995632, 0x50b9656c
0,         79,         79,        1,  2995632, 0x50b9656c
0,         80,         80,        1,  2995632, 0x50b9656c
0,         81,         81,        1,  2995632, 0x29c17deb
0,         82,         82,        1,  2995632, 0x6f868d8a
0,         83,         83,        1,  2995632, 0x2ea88d55
0,         84,         84,        1,  2995632, 0xe0208c8d
0,         85,         85,        1,  2995632, 0x25084a8f
0,         86,         86,        1,  2995632, 0xd0e3bddd
0,         87,         87,        1,  2995632, 0xc9c3e0ff
0,         88,         88,        1,  2995632, 0xcbefe0b1
0,         89,         89,        1,  2995632, 0xd7b0e00d
0,         90,         90,        1,  2995632, 0x2dc9dff8
0,         91,         91,        1,  2995632, 0x1ea9a835
0,         93,         93,        1,  2995632, 0x9be91cc7
0,         94,         94,        1,  2995632, 0x27c31d09
0,         95,         95,        1,  2995632, 0xc4d65c0c
0,         96,         96,        1,  2995632, 0xc4d65c0c
0,         97,         97,        1,  2995632, 0xc4d65c0c
0,         98,         98,        1,  2995632, 0xc4d65c0c
0,         99,         99,        1,  2995632, 0xc4d65c0c
0,        100,        100,        1,  2995632, 0xceb7bde7
0,        101,        101,        1,  2995632, 0xfbace8b0
0,        102,        102,        1,  2995632, 0x18ab6b35
0,        103,        103,        1,  2995632, 0x18ab6b35
0,        104,        104,        1,  2995632, 0x18ab6b35
0,        105,        105,        1,  2995632, 0x18ab6b35
0,        106,        106,        1,  2995632, 0x18ab6b35
0,        107,        107,        1,  2995632, 0x18ab6b35
0,        108,        108,        1,  2995632, 0x18ab6b35
0,        109,        109,        1,  2995632, 0x18ab6b35
0,        110,        110,        1,  2995632, 0x18ab6b35
0,        111,        111,        1,  2995632, 0x18ab6b35
0,        112,        112,        1,  2995632, 0x18ab6b35
0,        113,        113,        1,  2995632, 0x18ab6b35
0,        114,        114,        1,  2995632, 0x18ab6b35
0,        115,        115,        1,  2995632, 0x18ab6b35
0,        116,        116,        1,  2995632, 0x18ab6b35
0,        117,        117,        1,  2995632, 0x18ab6b35
0,        118,        118,        1,  2995632, 0x18ab6b35
0,        119,        119,        1,  2995632, 0x18ab6b35
0,        120,        120,        1,  2995632, 0x18ab6b35
0,        121,        121,        1,  2995632, 0x18ab6b35
0,        122,        122,        1,  2995632, 0x18ab6b35
0,        123,        123,        1,  2995632, 0x18ab6b35
0,        124,        124,        1,  2995632, 0x18ab6b35
0,        125,        125,        1,  2995632, 0x18ab6b35
0,        126,        126,        1,  2995632, 0x18ab6b35
0,        127,        127,        1,  2995632, 0x18ab6b35
0,        128,        128,        1,  2995632, 0x18ab6b35
0,        129,        129,        1,  2995632, 0x18ab6b35
0,        130,        130,        1,  2995632, 0x68f6d0e7
